<svg width="256" height="41" viewBox="0 0 256 41" fill="none" xmlns="http://www.w3.org/2000/svg">
<path d="M8.474 27.608C7.81533 27.608 7.11867 27.532 6.384 27.38C5.64933 27.2533 4.94 27.0633 4.256 26.81C3.572 26.5313 2.97667 26.2147 2.47 25.86C1.98867 25.48 1.68467 25.062 1.558 24.606C1.45667 24.3527 1.41867 24.112 1.444 23.884C1.46933 23.6307 1.54533 23.3773 1.672 23.124C1.79867 22.8453 1.98867 22.5667 2.242 22.288C2.47 22.0093 2.698 21.8573 2.926 21.832C3.17933 21.7813 3.496 21.8573 3.876 22.06C4.20533 22.1867 4.56 22.3513 4.94 22.554C5.34533 22.7567 5.75067 22.9593 6.156 23.162C6.58667 23.3647 7.01733 23.5293 7.448 23.656C7.904 23.7827 8.34733 23.846 8.778 23.846C9.71533 23.846 10.4627 23.694 11.02 23.39C11.5773 23.0607 11.856 22.6047 11.856 22.022C11.856 21.6927 11.7673 21.4013 11.59 21.148C11.4127 20.8947 11.172 20.692 10.868 20.54C10.5893 20.3627 10.2473 20.2107 9.842 20.084C9.462 19.932 9.044 19.8053 8.588 19.704C8.15733 19.5773 7.70133 19.438 7.22 19.286C6.58667 19.1087 5.95333 18.8933 5.32 18.64C4.68667 18.3867 4.11667 18.0573 3.61 17.652C3.12867 17.2467 2.736 16.74 2.432 16.132C2.128 15.524 1.976 14.764 1.976 13.852C1.976 12.712 2.242 11.7493 2.774 10.964C3.33133 10.1533 4.12933 9.53267 5.168 9.102C6.20667 8.67133 7.46067 8.456 8.93 8.456C9.43667 8.456 9.918 8.494 10.374 8.57C10.8553 8.646 11.3113 8.76 11.742 8.912C12.198 9.03867 12.6287 9.20333 13.034 9.406C13.4647 9.60867 13.87 9.83667 14.25 10.09C14.8833 10.4447 15.2127 10.8627 15.238 11.344C15.2633 11.8 15.086 12.294 14.706 12.826C14.4273 13.1807 14.1487 13.434 13.87 13.586C13.5913 13.7127 13.3 13.7127 12.996 13.586C12.5907 13.3833 12.1473 13.168 11.666 12.94C11.21 12.6867 10.7287 12.4713 10.222 12.294C9.74067 12.1167 9.234 12.028 8.702 12.028C8.19533 12.028 7.73933 12.104 7.334 12.256C6.92867 12.408 6.62467 12.6233 6.422 12.902C6.21933 13.1807 6.118 13.51 6.118 13.89C6.118 14.2447 6.21933 14.536 6.422 14.764C6.62467 14.992 6.89067 15.182 7.22 15.334C7.54933 15.486 7.942 15.6253 8.398 15.752C8.854 15.8533 9.33533 15.9547 9.842 16.056C10.5513 16.208 11.2733 16.398 12.008 16.626C12.7427 16.854 13.414 17.1707 14.022 17.576C14.6553 17.9813 15.162 18.526 15.542 19.21C15.922 19.8687 16.112 20.73 16.112 21.794C16.112 23.6433 15.428 25.0747 14.06 26.088C12.7173 27.1013 10.8553 27.608 8.474 27.608ZM30.9314 27.114C29.6901 27.114 28.5754 26.886 27.5874 26.43C26.6247 25.9487 25.8014 25.29 25.1174 24.454C24.4587 23.5927 23.9521 22.6047 23.5974 21.49C23.2681 20.3753 23.1034 19.172 23.1034 17.88C23.1287 16.588 23.3187 15.3847 23.6734 14.27C24.0281 13.13 24.5347 12.142 25.1934 11.306C25.8774 10.47 26.7007 9.81133 27.6634 9.33C28.6261 8.84867 29.7154 8.608 30.9314 8.608C32.0967 8.608 33.1861 8.84867 34.1994 9.33C35.2381 9.81133 36.1501 10.4827 36.9354 11.344C37.7461 12.2053 38.3794 13.206 38.8354 14.346C39.2914 15.4607 39.5194 16.664 39.5194 17.956C39.5194 19.2733 39.2914 20.4893 38.8354 21.604C38.3794 22.7187 37.7587 23.694 36.9734 24.53C36.1881 25.3407 35.2761 25.974 34.2374 26.43C33.1987 26.886 32.0967 27.114 30.9314 27.114ZM23.3314 35.018C22.6474 35.018 22.1407 34.9167 21.8114 34.714C21.4821 34.5113 21.2794 34.2453 21.2034 33.916C21.1274 33.5867 21.0894 33.2067 21.0894 32.776V10.926C21.0894 10.4953 21.1274 10.1153 21.2034 9.786C21.2794 9.45667 21.4694 9.19067 21.7734 8.988C22.1027 8.76 22.6094 8.646 23.2934 8.646C23.9521 8.646 24.4714 8.74733 24.8514 8.95C25.2314 9.15267 25.4847 9.49467 25.6114 9.976V32.738C25.6367 33.1687 25.5987 33.5487 25.4974 33.878C25.4214 34.2327 25.2187 34.5113 24.8894 34.714C24.5601 34.9167 24.0407 35.018 23.3314 35.018ZM30.3234 22.858C31.2101 22.858 32.0081 22.6553 32.7174 22.25C33.4267 21.8193 33.9841 21.2367 34.3894 20.502C34.8201 19.742 35.0354 18.8933 35.0354 17.956C35.0354 16.9933 34.8201 16.1447 34.3894 15.41C33.9841 14.6753 33.4267 14.1053 32.7174 13.7C32.0081 13.2693 31.2101 13.054 30.3234 13.054C29.4621 13.054 28.6767 13.2693 27.9674 13.7C27.2581 14.1307 26.6881 14.7133 26.2574 15.448C25.8521 16.1573 25.6494 16.9933 25.6494 17.956C25.6494 18.8933 25.8521 19.742 26.2574 20.502C26.6881 21.2367 27.2581 21.8193 27.9674 22.25C28.6767 22.6553 29.4621 22.858 30.3234 22.858ZM53.6735 27.608C52.0268 27.608 50.5828 27.342 49.3415 26.81C48.1255 26.278 47.0995 25.556 46.2635 24.644C45.4528 23.7067 44.8322 22.668 44.4015 21.528C43.9962 20.3627 43.7935 19.1593 43.7935 17.918C43.7935 16.094 44.2115 14.4727 45.0475 13.054C45.8835 11.6353 47.0362 10.5207 48.5055 9.71C50.0002 8.89933 51.7102 8.494 53.6355 8.494C55.0035 8.494 56.2068 8.70933 57.2455 9.14C58.2842 9.57067 59.1455 10.1407 59.8295 10.85C60.5388 11.534 61.0708 12.294 61.4255 13.13C61.8055 13.966 61.9955 14.7767 61.9955 15.562C61.9955 16.9047 61.6662 17.88 61.0075 18.488C60.3742 19.096 59.5762 19.4 58.6135 19.4H48.5815C48.6068 20.2613 48.8728 21.0087 49.3795 21.642C49.9115 22.2753 50.5702 22.7693 51.3555 23.124C52.1662 23.4533 52.9895 23.618 53.8255 23.618C54.4588 23.618 55.0162 23.58 55.4975 23.504C56.0042 23.428 56.4348 23.3393 56.7895 23.238C57.1442 23.1113 57.4482 22.9847 57.7015 22.858C57.9802 22.7313 58.2335 22.6173 58.4615 22.516C58.6895 22.4147 58.9048 22.3513 59.1075 22.326C59.3862 22.3007 59.6648 22.364 59.9435 22.516C60.2222 22.668 60.4502 22.934 60.6275 23.314C60.7795 23.5673 60.8808 23.808 60.9315 24.036C61.0075 24.2387 61.0455 24.4413 61.0455 24.644C61.0455 25.1507 60.7415 25.632 60.1335 26.088C59.5255 26.5187 58.6642 26.8733 57.5495 27.152C56.4602 27.456 55.1682 27.608 53.6735 27.608ZM48.5815 16.702H56.3715C56.8022 16.702 57.1315 16.6387 57.3595 16.512C57.5875 16.36 57.7015 16.056 57.7015 15.6C57.7015 15.0173 57.5242 14.498 57.1695 14.042C56.8148 13.5607 56.3335 13.1933 55.7255 12.94C55.1175 12.6613 54.4082 12.522 53.5975 12.522C52.6602 12.522 51.8115 12.712 51.0515 13.092C50.2915 13.4467 49.6835 13.9407 49.2275 14.574C48.7968 15.2073 48.5815 15.9167 48.5815 16.702ZM76.0579 27.608C74.4112 27.608 72.9672 27.342 71.7259 26.81C70.5099 26.278 69.4839 25.556 68.6479 24.644C67.8372 23.7067 67.2166 22.668 66.7859 21.528C66.3806 20.3627 66.1779 19.1593 66.1779 17.918C66.1779 16.094 66.5959 14.4727 67.4319 13.054C68.2679 11.6353 69.4206 10.5207 70.8899 9.71C72.3846 8.89933 74.0946 8.494 76.0199 8.494C77.3879 8.494 78.5912 8.70933 79.6299 9.14C80.6686 9.57067 81.5299 10.1407 82.2139 10.85C82.9232 11.534 83.4552 12.294 83.8099 13.13C84.1899 13.966 84.3799 14.7767 84.3799 15.562C84.3799 16.9047 84.0506 17.88 83.3919 18.488C82.7586 19.096 81.9606 19.4 80.9979 19.4H70.9659C70.9912 20.2613 71.2572 21.0087 71.7639 21.642C72.2959 22.2753 72.9546 22.7693 73.7399 23.124C74.5506 23.4533 75.3739 23.618 76.2099 23.618C76.8432 23.618 77.4006 23.58 77.8819 23.504C78.3886 23.428 78.8192 23.3393 79.1739 23.238C79.5286 23.1113 79.8326 22.9847 80.0859 22.858C80.3646 22.7313 80.6179 22.6173 80.8459 22.516C81.0739 22.4147 81.2892 22.3513 81.4919 22.326C81.7706 22.3007 82.0492 22.364 82.3279 22.516C82.6066 22.668 82.8346 22.934 83.0119 23.314C83.1639 23.5673 83.2652 23.808 83.3159 24.036C83.3919 24.2387 83.4299 24.4413 83.4299 24.644C83.4299 25.1507 83.1259 25.632 82.5179 26.088C81.9099 26.5187 81.0486 26.8733 79.9339 27.152C78.8446 27.456 77.5526 27.608 76.0579 27.608ZM70.9659 16.702H78.7559C79.1866 16.702 79.5159 16.6387 79.7439 16.512C79.9719 16.36 80.0859 16.056 80.0859 15.6C80.0859 15.0173 79.9086 14.498 79.5539 14.042C79.1992 13.5607 78.7179 13.1933 78.1099 12.94C77.5019 12.6613 76.7926 12.522 75.9819 12.522C75.0446 12.522 74.1959 12.712 73.4359 13.092C72.6759 13.4467 72.0679 13.9407 71.6119 14.574C71.1812 15.2073 70.9659 15.9167 70.9659 16.702ZM98.4423 27.456C97.2263 27.456 96.0356 27.2533 94.8703 26.848C93.7303 26.4173 92.6916 25.7967 91.7543 24.986C90.8423 24.1753 90.1076 23.1873 89.5503 22.022C89.0183 20.8313 88.7523 19.4887 88.7523 17.994C88.7523 16.4993 89.0183 15.1693 89.5503 14.004C90.1076 12.8387 90.8423 11.8507 91.7543 11.04C92.6663 10.2293 93.6923 9.60867 94.8323 9.178C95.9723 8.74733 97.1503 8.532 98.3663 8.532C99.2529 8.532 100.089 8.65867 100.874 8.912C101.685 9.16533 102.382 9.46933 102.964 9.824C103.547 10.1787 103.965 10.5333 104.218 10.888C104.548 11.192 104.826 11.4833 105.054 11.762C105.282 12.0407 105.358 12.3827 105.282 12.788C105.206 13.0413 105.092 13.282 104.94 13.51C104.788 13.7127 104.598 13.928 104.37 14.156C103.762 14.84 103.167 15.0933 102.584 14.916C102.255 14.7387 101.926 14.5487 101.596 14.346C101.267 14.1433 100.925 13.9533 100.57 13.776C100.241 13.5733 99.8989 13.4087 99.5443 13.282C99.1896 13.1553 98.7969 13.092 98.3663 13.092C97.4036 13.092 96.5423 13.3073 95.7823 13.738C95.0476 14.1433 94.4649 14.7133 94.0343 15.448C93.6289 16.1827 93.4263 17.0313 93.4263 17.994C93.4263 18.9567 93.6289 19.818 94.0343 20.578C94.4649 21.3127 95.0476 21.8953 95.7823 22.326C96.5169 22.7313 97.3529 22.934 98.2903 22.934C98.7463 22.934 99.1769 22.8833 99.5823 22.782C100.013 22.6553 100.393 22.5033 100.722 22.326C101.052 22.1233 101.318 21.9207 101.52 21.718C101.799 21.5407 102.052 21.376 102.28 21.224C102.508 21.072 102.749 20.996 103.002 20.996C103.306 20.996 103.598 21.11 103.876 21.338C104.18 21.5407 104.51 21.87 104.864 22.326C105.194 22.706 105.371 23.0733 105.396 23.428C105.447 23.7827 105.371 24.1247 105.168 24.454C104.991 24.7833 104.687 25.0873 104.256 25.366C103.952 25.67 103.496 25.9867 102.888 26.316C102.306 26.62 101.622 26.886 100.836 27.114C100.076 27.342 99.2783 27.456 98.4423 27.456ZM112.387 27.38C111.678 27.38 111.159 27.266 110.829 27.038C110.525 26.8353 110.335 26.5567 110.259 26.202C110.183 25.8473 110.145 25.4673 110.145 25.062V2.376C110.145 1.94533 110.183 1.56533 110.259 1.236C110.361 0.881332 110.563 0.602665 110.867 0.399998C111.197 0.197333 111.716 0.0959998 112.425 0.0959998C113.135 0.0959998 113.641 0.209999 113.945 0.437998C114.275 0.640665 114.477 0.919332 114.553 1.274C114.655 1.60333 114.705 1.98333 114.705 2.414V11.002C115.212 10.4193 115.858 9.88733 116.643 9.406C117.454 8.89933 118.429 8.646 119.569 8.646C121.115 8.646 122.495 9.026 123.711 9.786C124.927 10.5207 125.89 11.5467 126.599 12.864C127.309 14.1813 127.663 15.7267 127.663 17.5V25.1C127.663 25.5053 127.625 25.8853 127.549 26.24C127.473 26.5693 127.271 26.8353 126.941 27.038C126.637 27.2407 126.131 27.342 125.421 27.342C124.712 27.342 124.193 27.2407 123.863 27.038C123.534 26.8353 123.331 26.5693 123.255 26.24C123.179 25.8853 123.141 25.48 123.141 25.024V17.462C123.141 16.5753 122.989 15.8027 122.685 15.144C122.381 14.4853 121.925 13.9787 121.317 13.624C120.735 13.244 120 13.054 119.113 13.054C117.923 13.054 116.922 13.4087 116.111 14.118C115.301 14.802 114.832 15.6887 114.705 16.778V25.1C114.705 25.5053 114.655 25.8853 114.553 26.24C114.477 26.5947 114.275 26.8733 113.945 27.076C113.641 27.2787 113.122 27.38 112.387 27.38Z" fill="#075985"/>
<path d="M147.002 26.81L132.714 17.728C132.461 17.576 132.233 17.348 132.03 17.044C131.828 16.7147 131.726 16.3347 131.726 15.904C131.726 15.3467 131.84 14.9413 132.068 14.688C132.296 14.4347 132.524 14.2447 132.752 14.118L147.002 5.036C147.357 4.808 147.686 4.64333 147.99 4.542C148.294 4.41533 148.611 4.428 148.94 4.58C149.27 4.70667 149.624 5.06133 150.004 5.644C150.359 6.20133 150.536 6.65733 150.536 7.012C150.562 7.36667 150.46 7.67067 150.232 7.924C150.004 8.17733 149.726 8.418 149.396 8.646L137.806 15.942L149.396 23.238C149.751 23.4407 150.03 23.6687 150.232 23.922C150.46 24.15 150.562 24.454 150.536 24.834C150.536 25.1887 150.359 25.6447 150.004 26.202C149.65 26.7593 149.308 27.1013 148.978 27.228C148.649 27.38 148.32 27.4053 147.99 27.304C147.686 27.2027 147.357 27.038 147.002 26.81ZM239.874 26.81C239.544 27.038 239.215 27.2027 238.886 27.304C238.556 27.4053 238.227 27.38 237.898 27.228C237.594 27.1013 237.252 26.7593 236.872 26.202C236.517 25.6447 236.327 25.1887 236.302 24.834C236.302 24.454 236.403 24.15 236.606 23.922C236.834 23.6687 237.125 23.4407 237.48 23.238L249.07 15.942L237.48 8.646C237.15 8.418 236.872 8.17733 236.644 7.924C236.416 7.67067 236.314 7.36667 236.34 7.012C236.365 6.65733 236.542 6.20133 236.872 5.644C237.252 5.06133 237.606 4.70667 237.936 4.58C238.265 4.428 238.582 4.41533 238.886 4.542C239.215 4.64333 239.544 4.808 239.874 5.036L254.124 14.118C254.352 14.2447 254.58 14.4347 254.808 14.688C255.036 14.9413 255.15 15.3467 255.15 15.904C255.15 16.3347 255.048 16.7147 254.846 17.044C254.643 17.348 254.415 17.576 254.162 17.728L239.874 26.81Z" fill="#EC4899"/>
<path d="M159.178 27.38C158.494 27.38 157.987 27.2787 157.658 27.076C157.354 26.8733 157.164 26.5947 157.088 26.24C157.012 25.86 156.974 25.4673 156.974 25.062V6.594C156.974 5.65667 157.101 4.79533 157.354 4.01C157.607 3.19933 158.013 2.50267 158.57 1.92C159.127 1.33733 159.849 0.881332 160.736 0.551998C161.623 0.197332 162.699 0.0199986 163.966 0.0199986C164.397 0.0199986 164.777 0.0706653 165.106 0.171999C165.461 0.247999 165.739 0.437999 165.942 0.741998C166.17 1.046 166.284 1.56533 166.284 2.3C166.284 2.984 166.17 3.49067 165.942 3.82C165.739 4.14933 165.461 4.352 165.106 4.428C164.751 4.504 164.359 4.542 163.928 4.542C163.497 4.542 163.117 4.56733 162.788 4.618C162.484 4.64333 162.231 4.71933 162.028 4.846C161.851 4.97267 161.711 5.17533 161.61 5.454C161.534 5.73266 161.496 6.08733 161.496 6.518V25.138C161.496 25.5433 161.445 25.9233 161.344 26.278C161.268 26.6073 161.065 26.8733 160.736 27.076C160.407 27.2787 159.887 27.38 159.178 27.38ZM155.416 9.026L159.33 9.064L164.574 8.912C165.005 8.912 165.385 8.96267 165.714 9.064C166.069 9.14 166.347 9.34267 166.55 9.672C166.753 9.976 166.854 10.4827 166.854 11.192C166.854 11.8507 166.753 12.3447 166.55 12.674C166.347 13.0033 166.081 13.2187 165.752 13.32C165.423 13.396 165.043 13.434 164.612 13.434L159.52 13.358L155.302 13.396C154.669 13.3707 154.225 13.1933 153.972 12.864C153.744 12.5093 153.63 11.9393 153.63 11.154C153.63 10.4193 153.769 9.88733 154.048 9.558C154.352 9.20333 154.808 9.026 155.416 9.026ZM178.087 27.38C177.15 27.38 176.314 27.3167 175.579 27.19C174.87 27.0633 174.249 26.848 173.717 26.544C173.21 26.24 172.792 25.8347 172.463 25.328C172.134 24.796 171.88 24.15 171.703 23.39C171.551 22.63 171.475 21.718 171.475 20.654V2.338C171.475 1.90733 171.513 1.52733 171.589 1.198C171.69 0.843333 171.893 0.564666 172.197 0.361999C172.526 0.133999 173.046 0.0199986 173.755 0.0199986C174.464 0.0199986 174.971 0.121332 175.275 0.323999C175.604 0.526666 175.807 0.805333 175.883 1.16C175.984 1.48933 176.035 1.86933 176.035 2.3V20.464C176.035 20.9453 176.06 21.3507 176.111 21.68C176.187 21.984 176.301 22.2373 176.453 22.44C176.63 22.6173 176.846 22.744 177.099 22.82C177.378 22.896 177.707 22.934 178.087 22.934C178.416 22.934 178.708 22.972 178.961 23.048C179.24 23.124 179.455 23.314 179.607 23.618C179.784 23.922 179.873 24.416 179.873 25.1C179.873 25.8093 179.784 26.3287 179.607 26.658C179.455 26.9873 179.24 27.19 178.961 27.266C178.682 27.342 178.391 27.38 178.087 27.38ZM193.25 27.608C192.034 27.608 190.843 27.38 189.678 26.924C188.538 26.4427 187.499 25.7713 186.562 24.91C185.65 24.0487 184.915 23.0353 184.358 21.87C183.826 20.7047 183.56 19.4253 183.56 18.032C183.56 16.6893 183.813 15.4353 184.32 14.27C184.826 13.1047 185.523 12.0787 186.41 11.192C187.296 10.3053 188.31 9.62133 189.45 9.14C190.615 8.63333 191.856 8.38 193.174 8.38C194.947 8.38 196.556 8.81067 198 9.672C199.444 10.508 200.596 11.648 201.458 13.092C202.319 14.536 202.75 16.17 202.75 17.994C202.75 19.438 202.484 20.7553 201.952 21.946C201.42 23.1113 200.698 24.1247 199.786 24.986C198.874 25.822 197.848 26.468 196.708 26.924C195.593 27.38 194.44 27.608 193.25 27.608ZM193.174 23.124C194.01 23.124 194.808 22.9213 195.568 22.516C196.353 22.0853 196.986 21.4773 197.468 20.692C197.974 19.9067 198.228 18.982 198.228 17.918C198.228 16.93 198 16.056 197.544 15.296C197.113 14.536 196.518 13.9407 195.758 13.51C194.998 13.0793 194.124 12.864 193.136 12.864C192.198 12.864 191.35 13.092 190.59 13.548C189.83 13.9787 189.222 14.5867 188.766 15.372C188.335 16.132 188.12 16.9933 188.12 17.956C188.12 19.02 188.36 19.9447 188.842 20.73C189.323 21.49 189.944 22.0853 190.704 22.516C191.489 22.9213 192.312 23.124 193.174 23.124ZM213.734 27.342C213.227 27.342 212.822 27.2407 212.518 27.038C212.239 26.8607 212.024 26.6327 211.872 26.354C211.745 26.0753 211.631 25.822 211.53 25.594L205.944 11.458C205.792 10.9767 205.716 10.5713 205.716 10.242C205.741 9.91267 205.868 9.634 206.096 9.406C206.349 9.15267 206.717 8.93733 207.198 8.76C208.009 8.43067 208.642 8.342 209.098 8.494C209.579 8.646 209.934 9.07667 210.162 9.786L213.772 19.362L217.04 10.204C217.116 9.976 217.23 9.73533 217.382 9.482C217.534 9.22867 217.749 9.01333 218.028 8.836C218.332 8.63333 218.737 8.532 219.244 8.532C219.776 8.532 220.194 8.63333 220.498 8.836C220.802 9.01333 221.03 9.22867 221.182 9.482C221.359 9.73533 221.473 9.976 221.524 10.204L224.792 19.438L228.25 10.128C228.554 9.34267 228.934 8.82333 229.39 8.57C229.846 8.31667 230.467 8.342 231.252 8.646C231.961 8.95 232.443 9.33 232.696 9.786C232.949 10.2167 232.924 10.7867 232.62 11.496L226.996 25.594C226.895 25.8473 226.768 26.1133 226.616 26.392C226.489 26.6453 226.274 26.8607 225.97 27.038C225.691 27.2407 225.311 27.342 224.83 27.342C224.323 27.342 223.918 27.2533 223.614 27.076C223.335 26.924 223.12 26.7087 222.968 26.43C222.816 26.1513 222.689 25.86 222.588 25.556L219.282 16.17L215.976 25.556C215.824 25.9107 215.685 26.2273 215.558 26.506C215.431 26.7847 215.229 26.9873 214.95 27.114C214.671 27.266 214.266 27.342 213.734 27.342Z" fill="#0EA5E9"/>
<path d="M48 33C52.4308 37.5277 65.0338 43.8666 80 33" stroke="#EC4899" stroke-width="4" stroke-linecap="round"/>
</svg>
